<svg xmlns="http://www.w3.org/2000/svg" viewBox="0 0 1600 900" fill="none">
  <defs>
    <pattern id="cell" width="40" height="40" patternUnits="userSpaceOnUse">
      <path d="M40 0H0V40" stroke="#000" stroke-width="0.7"/>
    </pattern>
    <pattern id="block" width="160" height="160" patternUnits="userSpaceOnUse">
      <path d="M160 0H0V160" stroke="#000" stroke-width="1.35"/>
    </pattern>
  </defs>
  <rect width="1600" height="900" fill="url(#cell)" opacity="0.4"/>
  <rect width="1600" height="900" fill="url(#block)" opacity="0.55"/>
  <path d="M40 640H1560M760 40V860" stroke="#000" stroke-width="2.1"/>
  <path d="M1542 632l18 8-18 8M752 58l8-18 8 18" stroke="#000" stroke-width="2.1" stroke-linecap="round" stroke-linejoin="round"/>
  <g stroke="#000" stroke-width="1.4">
    <path d="M200 632v16M360 632v16M520 632v16M920 632v16M1080 632v16M1240 632v16M1400 632v16"/>
    <path d="M752 160h16M752 320h16M752 480h16M752 800h16"/>
  </g>
</svg>
