<svg xmlns="http://www.w3.org/2000/svg" viewBox="0 0 1600 900" fill="none">
  <g stroke="#000" stroke-width="5">
    <path d="M280 220L520 360M280 220L160 420M280 220L400 140"/>
    <path d="M520 360L760 220M520 360L640 560M520 360L900 480"/>
    <path d="M760 220L1040 160M760 220L980 340"/>
    <path d="M1040 160L1280 280M1040 160L1180 80"/>
    <path d="M1280 280L1440 420M1280 280L1320 520"/>
    <path d="M900 480L1120 640M900 480L760 700"/>
    <path d="M160 420L320 640M640 560L480 740"/>
  </g>
  <g fill="#000">
    <circle cx="280" cy="220" r="18"/>
    <circle cx="520" cy="360" r="18"/>
    <circle cx="760" cy="220" r="18"/>
    <circle cx="1040" cy="160" r="18"/>
    <circle cx="1280" cy="280" r="18"/>
    <circle cx="160" cy="420" r="14"/>
    <circle cx="400" cy="140" r="14"/>
    <circle cx="640" cy="560" r="14"/>
    <circle cx="900" cy="480" r="16"/>
    <circle cx="980" cy="340" r="14"/>
    <circle cx="1180" cy="80" r="12"/>
    <circle cx="1440" cy="420" r="14"/>
    <circle cx="1320" cy="520" r="14"/>
    <circle cx="1120" cy="640" r="14"/>
    <circle cx="760" cy="700" r="14"/>
    <circle cx="320" cy="640" r="14"/>
    <circle cx="480" cy="740" r="14"/>
  </g>
  <circle cx="520" cy="360" r="42" stroke="#000" stroke-width="4" fill="none" stroke-dasharray="8 10"/>
  <circle cx="900" cy="480" r="36" stroke="#000" stroke-width="4" fill="none" stroke-dasharray="8 10"/>
</svg>
